<!-- chart rendered by render-report.py from token-usage.json -->
<svg width="980" height="900" viewBox="0 0 980 900" xmlns="http://www.w3.org/2000/svg">
<rect width="100%" height="100%" fill="#fafafa"/>
<text x="490.0" y="26" text-anchor="middle" font-family="Segoe UI,Arial" font-size="19" font-weight="700" fill="#202124">Projected cost of the dominant working session by provider &amp; model</text>
<text x="490.0" y="48" text-anchor="middle" font-family="Segoe UI,Arial" font-size="12.5" fill="#5f6368">Input 18.61M · Output 1.59M (incl. 676.7K reasoning) · Cache-read 234.10M · log-scale, USD</text>
<line x1="223.9" y1="110" x2="223.9" y2="838" stroke="#e3e6ea" stroke-width="1"/>
<text x="223.9" y="854" text-anchor="middle" font-family="Segoe UI,Arial" font-size="10.5" fill="#9aa0a6">$1</text>
<line x1="402.9" y1="110" x2="402.9" y2="838" stroke="#e3e6ea" stroke-width="1"/>
<text x="402.9" y="854" text-anchor="middle" font-family="Segoe UI,Arial" font-size="10.5" fill="#9aa0a6">$10</text>
<line x1="581.9" y1="110" x2="581.9" y2="838" stroke="#e3e6ea" stroke-width="1"/>
<text x="581.9" y="854" text-anchor="middle" font-family="Segoe UI,Arial" font-size="10.5" fill="#9aa0a6">$100</text>
<line x1="761.0" y1="110" x2="761.0" y2="838" stroke="#e3e6ea" stroke-width="1"/>
<text x="761.0" y="854" text-anchor="middle" font-family="Segoe UI,Arial" font-size="10.5" fill="#9aa0a6">$1,000</text>
<line x1="940.0" y1="110" x2="940.0" y2="838" stroke="#e3e6ea" stroke-width="1"/>
<text x="940.0" y="854" text-anchor="middle" font-family="Segoe UI,Arial" font-size="10.5" fill="#9aa0a6">$10,000</text>
<text x="158" y="122.0" text-anchor="end" font-family="Segoe UI,Arial" font-size="14" font-weight="700" fill="#202124">DeepSeek</text>
<rect x="170.0" y="110.0" width="14.2" height="24" rx="3" fill="#eafb0a"/>
<text x="190.2" y="126.0" text-anchor="start" font-family="Consolas" font-size="11" font-weight="700" fill="#111">v4-flash-free (opencode) · $0.00</text>
<rect x="170.0" y="148.0" width="155.8" height="24" rx="3" fill="#2E7D32"/>
<text x="325.8" y="164.0" text-anchor="end" font-family="Consolas" font-size="11" font-weight="700" fill="#fff">v4-flash · $3.71</text>
<rect x="170.0" y="182.0" width="235.4" height="24" rx="3" fill="#F9A825"/>
<text x="405.4" y="198.0" text-anchor="end" font-family="Consolas" font-size="11" font-weight="700" fill="#fff">v4-pro · $10.33</text>
<text x="158" y="232.0" text-anchor="end" font-family="Segoe UI,Arial" font-size="14" font-weight="700" fill="#202124">Gemini</text>
<rect x="170.0" y="220.0" width="14.2" height="24" rx="3" fill="#eafb0a"/>
<text x="190.2" y="236.0" text-anchor="start" font-family="Consolas" font-size="11" font-weight="700" fill="#111">Flash free tier (rate-limited, AI Studio) · $0.00</text>
<rect x="170.0" y="258.0" width="176.5" height="24" rx="3" fill="#2E7D32"/>
<text x="346.5" y="274.0" text-anchor="end" font-family="Consolas" font-size="11" font-weight="700" fill="#fff">2.5 Flash-Lite · $4.84</text>
<rect x="170.0" y="292.0" width="432.4" height="24" rx="3" fill="#F9A825"/>
<text x="602.4" y="308.0" text-anchor="end" font-family="Consolas" font-size="11" font-weight="700" fill="#fff">3.5 Flash · $130.03</text>
<rect x="170.0" y="326.0" width="414.4" height="24" rx="3" fill="#C62828"/>
<text x="584.4" y="342.0" text-anchor="end" font-family="Consolas" font-size="11" font-weight="700" fill="#fff">3.1 Pro · $103.14</text>
<text x="158" y="376.0" text-anchor="end" font-family="Segoe UI,Arial" font-size="14" font-weight="700" fill="#202124">ChatGPT (OpenAI)</text>
<rect x="170.0" y="364.0" width="14.2" height="24" rx="3" fill="#eafb0a"/>
<text x="190.2" y="380.0" text-anchor="start" font-family="Consolas" font-size="11" font-weight="700" fill="#111">No prod free tier (web ai.com only) · $0.00</text>
<rect x="170.0" y="402.0" width="291.7" height="24" rx="3" fill="#2E7D32"/>
<text x="461.7" y="418.0" text-anchor="end" font-family="Consolas" font-size="11" font-weight="700" fill="#fff">GPT-4o-mini · $21.30</text>
<rect x="170.0" y="436.0" width="235.3" height="24" rx="3" fill="#F9A825"/>
<text x="405.3" y="452.0" text-anchor="end" font-family="Consolas" font-size="11" font-weight="700" fill="#fff">GPT-5.6 Luna · $10.31</text>
<rect x="170.0" y="470.0" width="414.4" height="24" rx="3" fill="#C62828"/>
<text x="584.4" y="486.0" text-anchor="end" font-family="Consolas" font-size="11" font-weight="700" fill="#fff">GPT-5.6 Terra · $103.14</text>
<rect x="170.0" y="504.0" width="485.6" height="24" rx="3" fill="#C62828"/>
<text x="655.6" y="520.0" text-anchor="end" font-family="Consolas" font-size="11" font-weight="700" fill="#fff">GPT-5.6 Sol · $257.86</text>
<text x="158" y="554.0" text-anchor="end" font-family="Segoe UI,Arial" font-size="14" font-weight="700" fill="#202124">Claude</text>
<rect x="170.0" y="542.0" width="14.2" height="24" rx="3" fill="#eafb0a"/>
<text x="190.2" y="558.0" text-anchor="start" font-family="Consolas" font-size="11" font-weight="700" fill="#111">No free tier (trial credit only) · $0.00</text>
<rect x="170.0" y="580.0" width="358.0" height="24" rx="3" fill="#2E7D32"/>
<text x="528.0" y="596.0" text-anchor="end" font-family="Consolas" font-size="11" font-weight="700" fill="#fff">Haiku 4.5 · $49.98</text>
<rect x="170.0" y="614.0" width="411.9" height="24" rx="3" fill="#F9A825"/>
<text x="581.9" y="630.0" text-anchor="end" font-family="Consolas" font-size="11" font-weight="700" fill="#fff">Sonnet 5 (intro) · $99.96</text>
<rect x="170.0" y="648.0" width="483.2" height="24" rx="3" fill="#C62828"/>
<text x="653.2" y="664.0" text-anchor="end" font-family="Consolas" font-size="11" font-weight="700" fill="#fff">Opus 5 · $249.90</text>
<rect x="170" y="869" width="13" height="13" rx="2" fill="#eafb0a"/>
<text x="188" y="879" font-family="Segoe UI,Arial" font-size="11.5" fill="#3c4043">Free (no cost)</text>
<rect x="362.5" y="869" width="13" height="13" rx="2" fill="#2E7D32"/>
<text x="380.5" y="879" font-family="Segoe UI,Arial" font-size="11.5" fill="#3c4043">Paid - budget</text>
<rect x="555.0" y="869" width="13" height="13" rx="2" fill="#F9A825"/>
<text x="573.0" y="879" font-family="Segoe UI,Arial" font-size="11.5" fill="#3c4043">Paid - mid</text>
<rect x="747.5" y="869" width="13" height="13" rx="2" fill="#C62828"/>
<text x="765.5" y="879" font-family="Segoe UI,Arial" font-size="11.5" fill="#3c4043">Paid - premium</text>
</svg>